Coordinates
version=1
nRows=21
nColumns=27
inDegrees=yes

Units are S.I. units (second, meters, Newtons, ...)
If the header above contains a line with 'inDegrees', this indicates whether rotational values are in degrees (yes) or radians (no).

endheader
time	pelvis_rotation	pelvis_tilt	pelvis_list	pelvis_tx	pelvis_ty	pelvis_tz	hip_flexion_r	hip_adduction_r	hip_rotation_r	knee_angle_r	knee_rotation_r	knee_adduction_r	knee_angle_r_beta	ankle_angle_r	subtalar_angle_r	mtp_angle_r	hip_flexion_l	hip_adduction_l	hip_rotation_l	knee_angle_l	knee_rotation_l	knee_adduction_l	knee_angle_l_beta	ankle_angle_l	subtalar_angle_l	mtp_angle_l
      5.03500000	      6.03909827	    -36.53566788	      6.04436408	     -0.06391541	      0.63728712	     -1.11392812	    106.12723669	    -39.93981380	      9.01409737	     78.99576117	      3.40499452	      9.79282070	      1.37873613	      4.05040252	     -7.92923787	      0.00000000	     98.36814957	    -30.92055790	      5.77657225	     70.37868517	      6.74748044	     -9.83140439	      1.22833978	      0.49711596	     -7.29791955	      0.00000000
      5.04000000	      5.78685637	    -36.22123033	      6.14172182	     -0.06352009	      0.63905619	     -1.11421220	    105.61471590	    -39.69275233	      8.93044380	     78.64010552	      3.22904598	      9.61121186	      1.37252877	      4.03257795	     -7.62270640	      0.00000000	     97.53234294	    -31.10186146	      5.03429985	     70.04858637	      6.42007308	     -9.68124695	      1.22257847	      0.55295975	     -6.86849256	      0.00000000
      5.04500000	      5.84072618	    -36.44353132	      5.96836640	     -0.06361986	      0.63972272	     -1.11447880	    105.52313369	    -39.88017977	      8.78432768	     78.48610242	      3.59018620	      9.79170692	      1.36984090	      3.95828082	     -7.95950803	      0.00000000	     97.82324492	    -31.12366902	      5.61026203	     69.99429756	      6.98845301	     -9.82894056	      1.22163095	      0.43967801	     -7.42015107	      0.00000000
      5.05000000	      5.90242493	    -36.36393146	      6.30693550	     -0.06338762	      0.64074710	     -1.11487430	    105.58451691	    -39.95013579	      9.22028487	     78.33447414	      3.75864449	      9.79072267	      1.36719449	      3.92064729	     -7.85043674	      0.00000000	     97.30495452	    -31.10292341	      5.08483967	     69.77463745	      7.01361338	     -9.82790596	      1.21779716	      0.44107218	     -7.45123301	      0.00000000
      5.05500000	      5.71480235	    -36.05177746	      6.29596260	     -0.06290779	      0.64250294	     -1.11521702	    104.94203359	    -39.81765044	      8.89904587	     77.96227125	      3.52644132	      9.60727487	      1.36069833	      3.92905091	     -7.46884085	      0.00000000	     96.59074414	    -31.17252146	      4.54080349	     69.47226290	      6.67623199	     -9.67464146	      1.21251973	      0.47540494	     -7.04391608	      0.00000000
      5.06000000	      5.97678713	    -36.29719084	      6.16130419	     -0.06296215	      0.64304109	     -1.11559197	    104.88908714	    -40.23938595	      8.67403338	     77.84407524	      3.85428198	      9.79057383	      1.35863542	      3.87617996	     -7.68253960	      0.00000000	     96.98948927	    -30.96118570	      5.24761898	     69.43866982	      7.23074886	     -9.82434807	      1.21193342	      0.39211054	     -7.62997017	      0.00000000
      5.06500000	      5.82510926	    -36.20984441	      6.42320307	     -0.06273925	      0.64406364	     -1.11598816	    104.90349140	    -40.08168476	      9.14244214	     77.66444732	      4.04155988	      9.78889803	      1.35550032	      3.83201208	     -7.70480897	      0.00000000	     96.43212867	    -31.14239004	      4.68423300	     69.24573567	      7.27432276	     -9.82391551	      1.20856608	      0.42267134	     -7.61609199	      0.00000000
      5.07000000	      5.27288888	    -35.93824977	      6.01429557	     -0.06224210	      0.64592740	     -1.11623279	    103.94983472	    -39.61541619	      8.35646793	     77.18559902	      3.69824687	      9.60231468	      1.34714284	      3.79114391	     -7.42219958	      0.00000000	     95.90741827	    -31.53081809	      4.41226281	     69.01055249	      6.93655197	     -9.66814096	      1.20446136	      0.48485962	     -7.10043092	      0.00000000
      5.07500000	      5.74471954	    -36.06415215	      6.55912157	     -0.06218677	      0.64617773	     -1.11680308	    104.48419141	    -40.14267497	      9.21475059	     77.23394512	      4.24905398	      9.78778918	      1.34798664	      3.75755223	     -7.60528305	      0.00000000	     95.75635988	    -31.18737121	      4.30262774	     68.91339171	      7.41419220	     -9.82138490	      1.20276558	      0.45396892	     -7.70531780	      0.00000000
      5.08000000	      5.06816382	    -35.35322399	      6.08859014	     -0.06111760	      0.64914914	     -1.11714013	    102.79930832	    -39.61805532	      7.91984917	     76.50362201	      3.55097388	      9.60425485	      1.33524009	      3.71568245	     -7.14822378	      0.00000000	     94.50257197	    -31.59373317	      3.62919722	     68.42842213	      6.85169029	     -9.67463136	      1.19430127	      0.53584008	     -7.30939457	      0.00000000
      5.08500000	      5.75518456	    -35.95981180	      6.52162371	     -0.06157473	      0.64832459	     -1.11768197	    103.89497543	    -40.35393907	      8.88870969	     76.78094395	      4.36220472	      9.78654287	      1.34008027	      3.70971335	     -7.44670765	      0.00000000	     95.30734589	    -31.08509975	      4.25124745	     68.61332204	      7.55610850	     -9.81935332	      1.19752838	      0.46389744	     -7.84939873	      0.00000000
      5.09000000	      5.49499548	    -35.92197759	      6.44493451	     -0.06129022	      0.64930490	     -1.11804779	    103.64156017	    -40.16300625	      8.84982436	     76.55504787	      4.44499574	      9.78476612	      1.33613764	      3.65274756	     -7.44513814	      0.00000000	     95.03814044	    -31.32134900	      4.12689471	     68.50493780	      7.64593991	     -9.81835090	      1.19563672	      0.52287177	     -7.79351543	      0.00000000
      5.09500000	      5.40502410	    -35.85159758	      6.39407303	     -0.06097852	      0.65045721	     -1.11847021	    103.29694764	    -40.16150631	      8.70880178	     76.29386921	      4.52674396	      9.78418683	      1.33157922	      3.59379316	     -7.45960222	      0.00000000	     94.75636115	    -31.35451044	      4.07161988	     68.33430973	      7.72868532	     -9.81743437	      1.19265870	      0.49092219	     -7.91876398	      0.00000000
      5.10000000	      5.53392028	    -35.76535166	      6.67172469	     -0.06055341	      0.65141202	     -1.11898662	    103.26742003	    -40.35690329	      8.96863680	     76.14252321	      4.64926878	      9.78350089	      1.32893773	      3.61799440	     -7.28550521	      0.00000000	     94.32908834	    -31.20690471	      3.70038658	     68.15828130	      7.73714988	     -9.81610936	      1.18958642	      0.51280749	     -7.94606064	      0.00000000
      5.10500000	      5.48679609	    -35.69281360	      6.77368937	     -0.06012219	      0.65248728	     -1.11943061	    103.08345107	    -40.38299885	      9.03448628	     75.93251849	      4.74222564	      9.78307818	      1.32527246	      3.57562427	     -7.27564240	      0.00000000	     93.94684129	    -31.22486856	      3.42973100	     67.98643297	      7.77135929	     -9.81492560	      1.18658710	      0.53542802	     -7.96913335	      0.00000000
      5.11000000	      5.37318161	    -35.62667690	      6.84414017	     -0.05970468	      0.65352483	     -1.11989189	    102.90137505	    -40.33428968	      9.12291364	     75.72459379	      4.83230379	      9.78209081	      1.32164349	      3.55818257	     -7.20985718	      0.00000000	     93.57753336	    -31.30245353	      3.16837111	     67.84189596	      7.81187650	     -9.81476535	      1.18406446	      0.61301119	     -7.94835615	      0.00000000
      5.11500000	      5.15243433	    -35.38025803	      6.65726641	     -0.05906870	      0.65530023	     -1.12026010	    102.12618631	    -40.17306569	      8.48550886	     75.30781461	      4.48554042	      9.59491043	      1.31436932	      3.56781899	     -6.84430433	      0.00000000	     93.06034061	    -31.33074658	      2.82821315	     67.58295422	      7.40048583	     -9.65138168	      1.17954507	      0.64970662	     -7.49476770	      0.00000000
      5.12000000	      5.42304505	    -35.53411651	      6.80618552	     -0.05883396	      0.65571058	     -1.12075703	    102.28156845	    -40.58223490	      8.77025189	     75.26171911	      4.95452220	      9.78131987	      1.31356480	      3.50341606	     -7.07572575	      0.00000000	     93.14183440	    -31.14894749	      3.15279529	     67.53050656	      7.93831850	     -9.81147442	      1.17862969	      0.61821929	     -8.07802996	      0.00000000
      5.12500000	      5.28292451	    -35.47717234	      6.85968957	     -0.05841475	      0.65676390	     -1.12116642	    102.09222623	    -40.49598786	      8.84650791	     75.04502094	      5.04293811	      9.78020867	      1.30978270	      3.46212283	     -7.06908957	      0.00000000	     92.77562258	    -31.25133015	      2.90499400	     67.37355342	      7.99320453	     -9.81096428	      1.17589034	      0.64334286	     -8.11294147	      0.00000000
      5.13000000	      5.28761812	    -35.40944265	      6.90797014	     -0.05793775	      0.65785961	     -1.12159240	    101.83568138	    -40.58379977	      8.81555786	     74.82287577	      5.13908345	      9.77949519	      1.30590554	      3.42972962	     -7.02998049	      0.00000000	     92.46595185	    -31.19578882	      2.76300426	     67.20474575	      8.02652565	     -9.80977152	      1.17294409	      0.65588627	     -8.16087932	      0.00000000
      5.13500000	      5.11674911	    -35.36791925	      6.82793788	     -0.05746896	      0.65895967	     -1.12192433	    101.52211468	    -40.48587039	      8.68343922	     74.58591706	      5.19693402	      9.77865809	      1.30176983	      3.37155940	     -7.04444810	      0.00000000	     92.19818772	    -31.33073144	      2.67900424	     67.06033654	      8.10002779	     -9.80852952	      1.17042367	      0.69283497	     -8.13953702	      0.00000000
